<svg width="159" height="142" viewBox="0 0 159 142" fill="none" xmlns="http://www.w3.org/2000/svg">
    <rect width="159" height="142" rx="16" fill="#252A30"/>
    <g opacity="0.2">
        <rect x="49.5" y="21" width="60" height="60" rx="30" fill="#E8F2FF"/>
    </g>
    <path d="M66.9166 48.7813C66.4212 48.7813 66.0104 48.3704 66.0104 47.875V44.8542C66.0104 41.35 68.862 38.5104 72.3541 38.5104H75.375C75.8704 38.5104 76.2812 38.9213 76.2812 39.4167C76.2812 39.9121 75.8704 40.3229 75.375 40.3229H72.3541C69.8529 40.3229 67.8229 42.3529 67.8229 44.8542V47.875C67.8229 48.3704 67.412 48.7813 66.9166 48.7813Z" fill="#BAC2CC"/>
    <path d="M91.0833 48.7813C90.5879 48.7813 90.1771 48.3704 90.1771 47.875V44.8542C90.1771 42.3529 88.1471 40.3229 85.6458 40.3229H82.625C82.1296 40.3229 81.7188 39.9121 81.7188 39.4167C81.7188 38.9213 82.1296 38.5104 82.625 38.5104H85.6458C89.1379 38.5104 91.9896 41.35 91.9896 44.8542V47.875C91.9896 48.3704 91.5788 48.7813 91.0833 48.7813Z" fill="#BAC2CC"/>
    <path d="M85.6459 64.4896H83.8334C83.338 64.4896 82.9271 64.0787 82.9271 63.5833C82.9271 63.0879 83.338 62.6771 83.8334 62.6771H85.6459C88.1471 62.6771 90.1771 60.6471 90.1771 58.1458V56.3333C90.1771 55.8379 90.588 55.4271 91.0834 55.4271C91.5788 55.4271 91.9896 55.8379 91.9896 56.3333V58.1458C91.9896 61.65 89.138 64.4896 85.6459 64.4896Z" fill="#BAC2CC"/>
    <path d="M75.375 64.4896H72.3541C68.862 64.4896 66.0104 61.65 66.0104 58.1458V55.125C66.0104 54.6296 66.4212 54.2188 66.9166 54.2188C67.412 54.2188 67.8229 54.6296 67.8229 55.125V58.1458C67.8229 60.6471 69.8529 62.6771 72.3541 62.6771H75.375C75.8704 62.6771 76.2812 63.0879 76.2812 63.5833C76.2812 64.0788 75.8704 64.4896 75.375 64.4896Z" fill="#BAC2CC"/>
    <path d="M75.375 50.5937H72.9584C71.2546 50.5937 70.2396 49.5787 70.2396 47.875V45.4583C70.2396 43.7546 71.2546 42.7396 72.9584 42.7396H75.375C77.0788 42.7396 78.0938 43.7546 78.0938 45.4583V47.875C78.0938 49.5787 77.0788 50.5937 75.375 50.5937ZM72.9584 44.5521C72.2455 44.5521 72.0521 44.7454 72.0521 45.4583V47.875C72.0521 48.5879 72.2455 48.7812 72.9584 48.7812H75.375C76.088 48.7812 76.2813 48.5879 76.2813 47.875V45.4583C76.2813 44.7454 76.088 44.5521 75.375 44.5521H72.9584Z" fill="#BAC2CC"/>
    <path d="M85.0417 50.5937H82.625C80.9212 50.5937 79.9062 49.5787 79.9062 47.875V45.4583C79.9062 43.7546 80.9212 42.7396 82.625 42.7396H85.0417C86.7454 42.7396 87.7604 43.7546 87.7604 45.4583V47.875C87.7604 49.5787 86.7454 50.5937 85.0417 50.5937ZM82.625 44.5521C81.9121 44.5521 81.7187 44.7454 81.7187 45.4583V47.875C81.7187 48.5879 81.9121 48.7812 82.625 48.7812H85.0417C85.7546 48.7812 85.9479 48.5879 85.9479 47.875V45.4583C85.9479 44.7454 85.7546 44.5521 85.0417 44.5521H82.625Z" fill="#BAC2CC"/>
    <path d="M75.375 60.2604H72.9584C71.2546 60.2604 70.2396 59.2454 70.2396 57.5417V55.125C70.2396 53.4212 71.2546 52.4062 72.9584 52.4062H75.375C77.0788 52.4062 78.0938 53.4212 78.0938 55.125V57.5417C78.0938 59.2454 77.0788 60.2604 75.375 60.2604ZM72.9584 54.2187C72.2455 54.2187 72.0521 54.4121 72.0521 55.125V57.5417C72.0521 58.2546 72.2455 58.4479 72.9584 58.4479H75.375C76.088 58.4479 76.2813 58.2546 76.2813 57.5417V55.125C76.2813 54.4121 76.088 54.2187 75.375 54.2187H72.9584Z" fill="#BAC2CC"/>
    <path d="M85.0417 60.2604H82.625C80.9212 60.2604 79.9062 59.2454 79.9062 57.5417V55.125C79.9062 53.4212 80.9212 52.4062 82.625 52.4062H85.0417C86.7454 52.4062 87.7604 53.4212 87.7604 55.125V57.5417C87.7604 59.2454 86.7454 60.2604 85.0417 60.2604ZM82.625 54.2187C81.9121 54.2187 81.7187 54.4121 81.7187 55.125V57.5417C81.7187 58.2546 81.9121 58.4479 82.625 58.4479H85.0417C85.7546 58.4479 85.9479 58.2546 85.9479 57.5417V55.125C85.9479 54.4121 85.7546 54.2187 85.0417 54.2187H82.625Z" fill="#BAC2CC"/>
    <path d="M69.28 113L71.87 103.354H74.544L77.134 113H75.776L75.146 110.69H71.254L70.624 113H69.28ZM71.52 109.542H74.894L73.55 104.474H72.864L71.52 109.542ZM78.5002 113V103.354H82.0562C82.7935 103.354 83.4002 103.471 83.8762 103.704C84.3522 103.928 84.7069 104.273 84.9402 104.74C85.1735 105.207 85.2902 105.809 85.2902 106.546C85.2902 107.274 85.1735 107.885 84.9402 108.38C84.7069 108.875 84.3522 109.248 83.8762 109.5C83.4002 109.752 82.7935 109.878 82.0562 109.878H79.8442V113H78.5002ZM79.8442 108.744H82.0422C82.7049 108.744 83.1809 108.557 83.4702 108.184C83.7689 107.801 83.9182 107.255 83.9182 106.546C83.9182 105.837 83.7689 105.319 83.4702 104.992C83.1809 104.665 82.7049 104.502 82.0422 104.502H79.8442V108.744ZM86.8127 113V103.354H88.1567V113H86.8127Z" fill="#BAC2CC"/>
</svg>
