<svg width="26" height="26" viewBox="0 0 26 26" fill="none" xmlns="http://www.w3.org/2000/svg">
    <rect width="26" height="26" rx="13" fill="#F2C56C" fill-opacity="0.2"/>
    <path d="M14.8333 13.6249H10.3167C9.97498 13.6249 9.69165 13.3416 9.69165 12.9999V9.3916C9.69165 9.04993 9.97498 8.7666 10.3167 8.7666H14.8333C16.125 8.7666 17.2667 9.89994 17.2667 11.1999C17.2667 12.5333 16.175 13.6249 14.8333 13.6249ZM10.9417 12.3749H14.8333C15.4833 12.3749 16.0167 11.8416 16.0167 11.1916C16.0167 10.6416 15.5 10.0083 14.8333 10.0083H10.9417V12.3749Z" fill="#F2C56C"/>
    <path d="M15.475 17.2333H10.3167C9.97498 17.2333 9.69165 16.95 9.69165 16.6083V13C9.69165 12.6583 9.97498 12.375 10.3167 12.375H15.475C16.9583 12.375 18.1667 13.4667 18.1667 14.8083C18.1667 16.15 16.9583 17.2333 15.475 17.2333ZM10.9417 15.9833H15.475C16.2667 15.9833 16.9167 15.45 16.9167 14.8C16.9167 14.15 16.275 13.6167 15.475 13.6167H10.9417V15.9833Z" fill="#F2C56C"/>
    <path d="M13.475 19.0417C13.1333 19.0417 12.85 18.7584 12.85 18.4167V16.6084C12.85 16.2667 13.1333 15.9834 13.475 15.9834C13.8166 15.9834 14.1 16.2667 14.1 16.6084V18.4167C14.1 18.7584 13.825 19.0417 13.475 19.0417Z" fill="#F2C56C"/>
    <path d="M11.225 19.0417C10.8833 19.0417 10.6 18.7584 10.6 18.4167V16.6084C10.6 16.2667 10.8833 15.9834 11.225 15.9834C11.5666 15.9834 11.85 16.2667 11.85 16.6084V18.4167C11.85 18.7584 11.5666 19.0417 11.225 19.0417Z" fill="#F2C56C"/>
    <path d="M13.475 10.0168C13.1333 10.0168 12.85 9.7335 12.85 9.39183V7.5835C12.85 7.24183 13.1333 6.9585 13.475 6.9585C13.8166 6.9585 14.1 7.24183 14.1 7.5835V9.39183C14.1 9.7335 13.825 10.0168 13.475 10.0168Z" fill="#F2C56C"/>
    <path d="M11.225 10.0168C10.8833 10.0168 10.6 9.7335 10.6 9.39183V7.5835C10.6 7.24183 10.8833 6.9585 11.225 6.9585C11.5666 6.9585 11.85 7.24183 11.85 7.5835V9.39183C11.85 9.7335 11.5666 10.0168 11.225 10.0168Z" fill="#F2C56C"/>
    <path d="M12.0333 10.0166H8.875C8.53333 10.0166 8.25 9.73327 8.25 9.3916C8.25 9.04993 8.53333 8.7666 8.875 8.7666H12.0333C12.375 8.7666 12.6583 9.04993 12.6583 9.3916C12.6583 9.73327 12.3833 10.0166 12.0333 10.0166Z" fill="#F2C56C"/>
    <path d="M12.0333 17.2334H8.875C8.53333 17.2334 8.25 16.9501 8.25 16.6084C8.25 16.2667 8.53333 15.9834 8.875 15.9834H12.0333C12.375 15.9834 12.6583 16.2667 12.6583 16.6084C12.6583 16.9501 12.3833 17.2334 12.0333 17.2334Z" fill="#F2C56C"/>
</svg>
