<svg width="37" height="37" viewBox="0 0 37 37" fill="none" xmlns="http://www.w3.org/2000/svg">
    <g clip-path="url(#clip0_1_4442)">
        <rect x="36.7687" y="18.5137" width="26" height="26" rx="13" transform="rotate(135.403 36.7687 18.5137)" fill="#E44848" fill-opacity="0.2"/>
        <path d="M15.2709 18.5555C15.5928 18.2381 16.1229 18.2418 16.4403 18.5637L18.9562 21.1153L21.5078 18.5994C21.8297 18.282 22.3598 18.2857 22.6772 18.6076C22.9946 18.9295 22.9909 19.4596 22.669 19.777L19.5286 22.8735C19.2067 23.1909 18.6766 23.1872 18.3592 22.8653L15.2627 19.7249C14.9453 19.403 14.949 18.8729 15.2709 18.5555Z" fill="#E44848"/>
        <path d="M18.4223 13.8997C18.5715 13.7527 18.7748 13.6605 19.0087 13.6622C19.4609 13.6654 19.8325 14.0422 19.8293 14.4944L19.7745 22.2905C19.7713 22.7427 19.3944 23.1143 18.9423 23.1111C18.4901 23.1079 18.1185 22.7311 18.1217 22.2789L18.1765 14.4828C18.1781 14.2489 18.2731 14.0468 18.4223 13.8997Z" fill="#E44848"/>
    </g>
    <defs>
        <clipPath id="clip0_1_4442">
            <rect x="36.7687" y="18.5137" width="26" height="26" rx="13" transform="rotate(135.403 36.7687 18.5137)" fill="white"/>
        </clipPath>
    </defs>
</svg>
