<svg width="159" height="142" viewBox="0 0 159 142" fill="none" xmlns="http://www.w3.org/2000/svg">
    <rect width="159" height="142" rx="16" fill="#252A30"/>
    <g opacity="0.2">
        <rect x="49.5" y="21" width="60" height="60" rx="30" fill="#E8F2FF"/>
    </g>
    <path d="M81.2687 56.6354H78.9971C77.39 56.6354 76.0729 55.2821 76.0729 53.6146C76.0729 53.1192 76.4837 52.7084 76.9791 52.7084C77.4745 52.7084 77.8854 53.1192 77.8854 53.6146C77.8854 54.2792 78.3808 54.8229 78.9971 54.8229H81.2687C81.7399 54.8229 82.1145 54.4 82.1145 53.8805C82.1145 53.228 81.9333 53.1313 81.5225 52.9863L77.8854 51.7175C77.112 51.4517 76.0729 50.8838 76.0729 49.1075C76.0729 47.5971 77.2691 46.3525 78.7312 46.3525H81.0029C82.6099 46.3525 83.927 47.7059 83.927 49.3734C83.927 49.8688 83.5162 50.2796 83.0208 50.2796C82.5254 50.2796 82.1145 49.8688 82.1145 49.3734C82.1145 48.7088 81.6191 48.165 81.0029 48.165H78.7312C78.26 48.165 77.8854 48.588 77.8854 49.1075C77.8854 49.76 78.0666 49.8567 78.4774 50.0017L82.1145 51.2704C82.8879 51.5363 83.927 52.1042 83.927 53.8805C83.927 55.403 82.7308 56.6354 81.2687 56.6354Z" fill="#BAC2CC"/>
    <path d="M80 57.8438C79.5046 57.8438 79.0938 57.4329 79.0938 56.9375V46.0625C79.0938 45.5671 79.5046 45.1562 80 45.1562C80.4954 45.1562 80.9062 45.5671 80.9062 46.0625V56.9375C80.9062 57.4329 80.4954 57.8438 80 57.8438Z" fill="#BAC2CC"/>
    <path d="M80 64.4895C72.8345 64.4895 67.0104 58.6654 67.0104 51.5C67.0104 44.3345 72.8345 38.5104 80 38.5104C80.4954 38.5104 80.9062 38.9212 80.9062 39.4166C80.9062 39.912 80.4954 40.3229 80 40.3229C73.8375 40.3229 68.8229 45.3375 68.8229 51.5C68.8229 57.6625 73.8375 62.677 80 62.677C86.1625 62.677 91.177 57.6625 91.177 51.5C91.177 51.0045 91.5879 50.5937 92.0833 50.5937C92.5787 50.5937 92.9895 51.0045 92.9895 51.5C92.9895 58.6654 87.1654 64.4895 80 64.4895Z" fill="#BAC2CC"/>
    <path d="M90.875 46.3646H86.0416C85.5462 46.3646 85.1354 45.9537 85.1354 45.4583V40.625C85.1354 40.1296 85.5462 39.7188 86.0416 39.7188C86.537 39.7188 86.9479 40.1296 86.9479 40.625V44.5521H90.875C91.3704 44.5521 91.7812 44.9629 91.7812 45.4583C91.7812 45.9537 91.3704 46.3646 90.875 46.3646Z" fill="#BAC2CC"/>
    <path d="M86.0417 46.3646C85.8121 46.3646 85.5825 46.28 85.4012 46.0987C85.0508 45.7483 85.0508 45.1683 85.4012 44.8179L91.4429 38.7762C91.7933 38.4258 92.3733 38.4258 92.7237 38.7762C93.0742 39.1267 93.0742 39.7067 92.7237 40.0571L86.6821 46.0987C86.5008 46.28 86.2712 46.3646 86.0417 46.3646Z" fill="#BAC2CC"/>
    <path d="M47.578 116.472C46.822 116.472 46.136 116.332 45.52 116.052C44.9133 115.781 44.4327 115.394 44.078 114.89C43.7327 114.395 43.56 113.831 43.56 113.196C43.56 113 43.574 112.743 43.602 112.426C43.6393 112.109 43.6813 111.754 43.728 111.362C43.784 110.97 43.84 110.573 43.896 110.172C43.9613 109.771 44.022 109.383 44.078 109.01L45.38 109.206C45.2773 109.85 45.184 110.443 45.1 110.984C45.0253 111.516 44.9647 111.973 44.918 112.356C44.8807 112.729 44.862 113.009 44.862 113.196C44.862 113.607 44.974 113.971 45.198 114.288C45.422 114.605 45.7393 114.853 46.15 115.03C46.5607 115.217 47.0367 115.31 47.578 115.31C48.1193 115.31 48.5767 115.221 48.95 115.044C49.3327 114.876 49.622 114.643 49.818 114.344C50.014 114.045 50.112 113.691 50.112 113.28V103.004H51.428V113.28C51.428 113.943 51.2553 114.512 50.91 114.988C50.5647 115.464 50.1027 115.828 49.524 116.08C48.9453 116.341 48.2967 116.472 47.578 116.472ZM59.1953 113V111.838H60.6933V113H59.1953ZM55.7513 116.206C55.4153 116.206 55.0606 116.178 54.6873 116.122C54.3233 116.075 53.9219 116.005 53.4833 115.912L53.6793 114.862C54.1739 114.918 54.5846 114.96 54.9113 114.988C55.2379 115.016 55.5179 115.03 55.7513 115.03C56.4979 115.03 57.0393 114.89 57.3753 114.61C57.7206 114.33 57.8933 113.924 57.8933 113.392V106.812L58.4253 107.162H56.2273C55.7326 107.162 55.3453 107.223 55.0653 107.344C54.7853 107.456 54.5893 107.685 54.4773 108.03C54.3653 108.366 54.3093 108.861 54.3093 109.514C54.3093 110.158 54.3653 110.648 54.4773 110.984C54.5893 111.311 54.7806 111.535 55.0513 111.656C55.3313 111.777 55.7233 111.838 56.2273 111.838H57.8933V113H56.2273C55.4153 113 54.7759 112.879 54.3093 112.636C53.8426 112.384 53.5066 112.001 53.3013 111.488C53.1053 110.965 53.0073 110.307 53.0073 109.514C53.0073 108.711 53.1053 108.049 53.3013 107.526C53.5066 107.003 53.8426 106.616 54.3093 106.364C54.7759 106.112 55.4153 105.986 56.2273 105.986H59.1953V113.378C59.1953 113.975 59.0553 114.484 58.7753 114.904C58.4953 115.333 58.0986 115.655 57.5853 115.87C57.0719 116.094 56.4606 116.206 55.7513 116.206ZM60.6933 113V111.838C60.8146 111.838 60.8893 111.889 60.9173 111.992C60.9546 112.095 60.9733 112.235 60.9733 112.412C60.9733 112.589 60.9546 112.734 60.9173 112.846C60.8893 112.949 60.8146 113 60.6933 113ZM60.6914 113V111.838H66.8234L66.4034 112.188V108.954C66.4034 108.366 66.2167 107.923 65.8434 107.624C65.4794 107.325 64.9101 107.176 64.1354 107.176C63.9021 107.176 63.5661 107.195 63.1274 107.232C62.6981 107.269 62.2407 107.325 61.7554 107.4L61.6154 106.336C61.9981 106.243 62.4134 106.163 62.8614 106.098C63.3094 106.023 63.7434 105.986 64.1634 105.986C64.8914 105.986 65.5167 106.103 66.0394 106.336C66.5714 106.569 66.9821 106.91 67.2714 107.358C67.5607 107.797 67.7054 108.329 67.7054 108.954V113H60.6914ZM60.6914 113C60.5701 113 60.4954 112.949 60.4674 112.846C60.4301 112.734 60.4114 112.589 60.4114 112.412C60.4114 112.235 60.4301 112.095 60.4674 111.992C60.4954 111.889 60.5701 111.838 60.6914 111.838V113ZM63.5054 104.992V103.634H64.8214V104.992H63.5054ZM74.5871 113V111.838H76.0991V113H74.5871ZM69.0991 113V111.838H74.2791L73.2851 112.72V109.85C73.2851 109.169 73.2057 108.632 73.0471 108.24C72.8977 107.848 72.6504 107.573 72.3051 107.414C71.9597 107.246 71.4931 107.162 70.9051 107.162H69.7711V105.986H70.9051C71.6797 105.986 72.3424 106.112 72.8931 106.364C73.4437 106.607 73.8637 107.013 74.1531 107.582C74.4424 108.142 74.5871 108.898 74.5871 109.85V113H69.0991ZM76.0991 113V111.838C76.2111 111.838 76.2857 111.889 76.3231 111.992C76.3604 112.095 76.3791 112.235 76.3791 112.412C76.3791 112.589 76.3604 112.734 76.3231 112.846C76.2857 112.949 76.2111 113 76.0991 113ZM77.7656 113V103.004H79.0676V113H77.7656ZM76.0996 113V111.838H77.7656V113H76.0996ZM76.0996 113C75.9783 113 75.9036 112.949 75.8756 112.846C75.8383 112.734 75.8196 112.589 75.8196 112.412C75.8196 112.235 75.8383 112.095 75.8756 111.992C75.9036 111.889 75.9783 111.838 76.0996 111.838V113ZM81.4351 113V103.004H82.7371V113H81.4351ZM90.8991 113C90.0871 113 89.4478 112.879 88.9811 112.636C88.5145 112.384 88.1785 112.001 87.9731 111.488C87.7771 110.965 87.6791 110.307 87.6791 109.514C87.6791 108.711 87.7771 108.049 87.9731 107.526C88.1785 107.003 88.5145 106.616 88.9811 106.364C89.4478 106.112 90.0871 105.986 90.8991 105.986H93.8671V112.356H92.5651V106.7L93.0971 107.162H90.8991C90.4045 107.162 90.0171 107.223 89.7371 107.344C89.4571 107.456 89.2611 107.685 89.1491 108.03C89.0371 108.366 88.9811 108.861 88.9811 109.514C88.9811 110.158 89.0371 110.648 89.1491 110.984C89.2611 111.311 89.4525 111.535 89.7231 111.656C90.0031 111.777 90.3951 111.838 90.8991 111.838H95.3651V113H90.8991ZM95.3651 113V111.838C95.4865 111.838 95.5611 111.889 95.5891 111.992C95.6265 112.095 95.6451 112.235 95.6451 112.412C95.6451 112.589 95.6265 112.734 95.5891 112.846C95.5611 112.949 95.4865 113 95.3651 113ZM89.4431 104.852V103.494H90.7591V104.852H89.4431ZM91.3611 104.852V103.494H92.6771V104.852H91.3611ZM98.1773 113V111.838H99.6753V113H98.1773ZM95.3633 113V111.838H97.5333L96.8613 112.37V105.986H98.1773V113H95.3633ZM95.3633 113C95.2419 113 95.1673 112.949 95.1393 112.846C95.1019 112.734 95.0833 112.589 95.0833 112.412C95.0833 112.235 95.1019 112.095 95.1393 111.992C95.1673 111.889 95.2419 111.838 95.3633 111.838V113ZM99.6753 113V111.838C99.7966 111.838 99.8713 111.889 99.8993 111.992C99.9366 112.095 99.9553 112.235 99.9553 112.412C99.9553 112.589 99.9366 112.734 99.8993 112.846C99.8713 112.949 99.7966 113 99.6753 113ZM96.8613 115.646V114.288H98.1773V115.646H96.8613ZM110.534 113V111.838H112.032V113H110.534ZM107.272 113C106.936 113 106.605 112.939 106.278 112.818C105.961 112.687 105.657 112.487 105.368 112.216L106.194 111.348C106.399 111.516 106.586 111.642 106.754 111.726C106.922 111.801 107.095 111.838 107.272 111.838H109.806L109.232 112.398V109.122C109.232 108.954 109.213 108.721 109.176 108.422C109.148 108.114 109.101 107.769 109.036 107.386C108.98 106.994 108.91 106.597 108.826 106.196L110.1 105.986C110.165 106.322 110.231 106.691 110.296 107.092C110.361 107.493 110.417 107.876 110.464 108.24C110.511 108.604 110.534 108.898 110.534 109.122V113H107.272ZM99.6699 113V111.838H101.714L101.392 112.16V107.4H102.694V113H99.6699ZM102.694 113V111.838H104.15C104.467 111.838 104.705 111.791 104.864 111.698C105.023 111.605 105.135 111.418 105.2 111.138C105.265 110.858 105.298 110.447 105.298 109.906V106.7H106.614V109.906C106.614 110.662 106.525 111.269 106.348 111.726C106.18 112.183 105.919 112.51 105.564 112.706C105.209 112.902 104.738 113 104.15 113H102.694ZM99.6699 113C99.5486 113 99.4739 112.949 99.4459 112.846C99.4086 112.734 99.3899 112.589 99.3899 112.412C99.3899 112.235 99.4086 112.095 99.4459 111.992C99.4739 111.889 99.5486 111.838 99.6699 111.838V113ZM112.032 113V111.838C112.153 111.838 112.228 111.889 112.256 111.992C112.293 112.095 112.312 112.235 112.312 112.412C112.312 112.589 112.293 112.734 112.256 112.846C112.228 112.949 112.153 113 112.032 113ZM112.029 113V111.838H114.199L113.527 112.37V105.986H114.843V113H112.029ZM112.029 113C111.908 113 111.833 112.949 111.805 112.846C111.768 112.734 111.749 112.589 111.749 112.412C111.749 112.235 111.768 112.095 111.805 111.992C111.833 111.889 111.908 111.838 112.029 111.838V113ZM113.527 104.726V103.368H114.843V104.726H113.527Z" fill="#BAC2CC"/>
</svg>
