<svg width="159" height="142" viewBox="0 0 159 142" fill="none" xmlns="http://www.w3.org/2000/svg">
    <rect width="159" height="142" rx="16" fill="#252A30"/>
    <g opacity="0.2">
        <rect x="49.5" y="21" width="60" height="60" rx="30" fill="#E8F2FF"/>
    </g>
    <path d="M79 64.4896C78.0575 64.4896 77.1392 64.0063 76.5109 63.1604L75.2904 61.5292C75.0367 61.1909 74.6984 60.9975 74.3359 60.9734C73.9734 60.9613 73.6109 61.1184 73.3209 61.4204L72.6321 60.8042L73.2967 61.4204C71.5567 63.2813 70.2154 63.1363 69.575 62.8825C68.9225 62.6288 67.8229 61.795 67.8229 59.1125V45.5067C67.8229 40.1417 69.3696 38.5104 74.4325 38.5104H83.5675C88.6304 38.5104 90.1771 40.1417 90.1771 45.5067V59.1125C90.1771 61.7829 89.0775 62.6167 88.425 62.8825C87.7846 63.1363 86.4554 63.2813 84.7034 61.4204C84.4134 61.1063 84.0509 60.9371 83.6763 60.9734C83.3138 60.9975 82.9634 61.1909 82.7096 61.5292L81.4892 63.1604C80.8609 64.0063 79.9425 64.4896 79 64.4896ZM74.2634 59.1488C74.3117 59.1488 74.3721 59.1488 74.4204 59.1488C75.3146 59.1971 76.1604 59.6684 76.7284 60.4296L77.9488 62.0609C78.5409 62.8463 79.4471 62.8463 80.0392 62.0609L81.2596 60.4296C81.8396 59.6684 82.6734 59.1971 83.5796 59.1488C84.4738 59.1004 85.3679 59.475 86.0204 60.1759C86.9388 61.1546 87.5309 61.2754 87.7484 61.1909C88.0384 61.07 88.3525 60.3692 88.3525 59.1125V45.5067C88.3525 41.1446 87.5913 40.3229 83.5554 40.3229H74.4325C70.3967 40.3229 69.6354 41.1446 69.6354 45.5067V59.1125C69.6354 60.3813 69.9496 61.0821 70.2396 61.1909C70.445 61.2754 71.0492 61.1546 71.9675 60.1759C72.62 59.5113 73.4296 59.1488 74.2634 59.1488Z" fill="#BAC2CC"/>
    <path d="M84.1112 51.1979H77.4654C76.97 51.1979 76.5591 50.7871 76.5591 50.2917C76.5591 49.7963 76.97 49.3854 77.4654 49.3854H84.1112C84.6066 49.3854 85.0175 49.7963 85.0175 50.2917C85.0175 50.7871 84.6066 51.1979 84.1112 51.1979Z" fill="#BAC2CC"/>
    <path d="M84.1112 46.3646H77.4654C76.97 46.3646 76.5591 45.9537 76.5591 45.4583C76.5591 44.9629 76.97 44.5521 77.4654 44.5521H84.1112C84.6066 44.5521 85.0175 44.9629 85.0175 45.4583C85.0175 45.9537 84.6066 46.3646 84.1112 46.3646Z" fill="#BAC2CC"/>
    <path d="M73.9008 46.6667C73.2363 46.6667 72.6925 46.1229 72.6925 45.4583C72.6925 44.7938 73.2363 44.25 73.9008 44.25C74.5654 44.25 75.1092 44.7938 75.1092 45.4583C75.1092 46.1229 74.5654 46.6667 73.9008 46.6667Z" fill="#BAC2CC"/>
    <path d="M73.9008 51.5C73.2363 51.5 72.6925 50.9562 72.6925 50.2916C72.6925 49.6271 73.2363 49.0833 73.9008 49.0833C74.5654 49.0833 75.1092 49.6271 75.1092 50.2916C75.1092 50.9562 74.5654 51.5 73.9008 51.5Z" fill="#BAC2CC"/>
    <path d="M62.738 116.206C62.6167 116.206 62.4907 116.197 62.36 116.178C62.22 116.169 62.08 116.159 61.94 116.15L62.052 114.988C62.192 114.997 62.3227 115.007 62.444 115.016C62.556 115.025 62.6493 115.03 62.724 115.03C63.144 115.03 63.48 114.871 63.732 114.554C63.9933 114.237 64.124 113.793 64.124 113.224V105.986H65.44V113.224C65.44 113.812 65.3233 114.33 65.09 114.778C64.8567 115.226 64.5393 115.576 64.138 115.828C63.7367 116.08 63.27 116.206 62.738 116.206ZM69.0282 113V111.838H70.7082V113H69.0282ZM67.7262 113V103.004H69.0282V113H67.7262ZM70.7082 113V111.838C70.8202 111.838 70.8948 111.889 70.9322 111.992C70.9695 112.095 70.9882 112.235 70.9882 112.412C70.9882 112.589 70.9695 112.734 70.9322 112.846C70.8948 112.949 70.8202 113 70.7082 113ZM73.5171 113V111.838H75.0151V113H73.5171ZM70.7031 113V111.838H72.8731L72.2011 112.37V105.986H73.5171V113H70.7031ZM70.7031 113C70.5818 113 70.5071 112.949 70.4791 112.846C70.4418 112.734 70.4231 112.589 70.4231 112.412C70.4231 112.235 70.4418 112.095 70.4791 111.992C70.5071 111.889 70.5818 111.838 70.7031 111.838V113ZM75.0151 113V111.838C75.1365 111.838 75.2111 111.889 75.2391 111.992C75.2765 112.095 75.2951 112.235 75.2951 112.412C75.2951 112.589 75.2765 112.734 75.2391 112.846C75.2111 112.949 75.1365 113 75.0151 113ZM72.2011 115.646V114.288H73.5171V115.646H72.2011ZM75.0098 113V111.838H81.1418L80.7218 112.188V108.954C80.7218 108.366 80.5351 107.923 80.1618 107.624C79.7978 107.325 79.2284 107.176 78.4538 107.176C78.2204 107.176 77.8844 107.195 77.4458 107.232C77.0164 107.269 76.5591 107.325 76.0738 107.4L75.9338 106.336C76.3164 106.243 76.7318 106.163 77.1798 106.098C77.6278 106.023 78.0618 105.986 78.4818 105.986C79.2098 105.986 79.8351 106.103 80.3578 106.336C80.8898 106.569 81.3004 106.91 81.5898 107.358C81.8791 107.797 82.0238 108.329 82.0238 108.954V113H75.0098ZM75.0098 113C74.8884 113 74.8138 112.949 74.7858 112.846C74.7484 112.734 74.7298 112.589 74.7298 112.412C74.7298 112.235 74.7484 112.095 74.7858 111.992C74.8138 111.889 74.8884 111.838 75.0098 111.838V113ZM77.8238 104.992V103.634H79.1398V104.992H77.8238ZM83.4174 113V111.838H90.3334L89.6474 112.538V103.004H90.9494V113H83.4174ZM85.5734 111.838V104.978H86.8754V111.838H85.5734ZM85.5314 103.984C85.3728 103.788 85.2514 103.601 85.1674 103.424C85.0834 103.237 85.0414 103.041 85.0414 102.836C85.0414 102.556 85.1114 102.304 85.2514 102.08C85.4008 101.856 85.5921 101.679 85.8254 101.548C86.0681 101.417 86.3248 101.352 86.5954 101.352C86.7541 101.352 86.9128 101.375 87.0714 101.422C87.2301 101.469 87.3701 101.529 87.4914 101.604L87.0994 102.29C87.0248 102.243 86.9501 102.215 86.8754 102.206C86.8008 102.187 86.7261 102.178 86.6514 102.178C86.4274 102.178 86.2548 102.239 86.1334 102.36C86.0121 102.481 85.9514 102.64 85.9514 102.836C85.9514 102.957 85.9748 103.074 86.0214 103.186C86.0681 103.289 86.1428 103.405 86.2454 103.536L85.5314 103.984ZM84.7614 104.012V103.2H87.6874V104.012H84.7614ZM93.3746 113V103.004H94.6766V113H93.3746Z" fill="#BAC2CC"/>
</svg>
