<svg width="159" height="142" viewBox="0 0 159 142" fill="none" xmlns="http://www.w3.org/2000/svg">
    <rect width="159" height="142" rx="16" fill="#252A30"/>
    <g opacity="0.2">
        <rect x="49.5" y="21" width="60" height="60" rx="30" fill="#E8F2FF"/>
    </g>
    <path d="M73.8134 58.8376C73.3179 58.8376 72.9071 58.4267 72.9071 57.9313V55.4301C72.9071 54.9346 73.3179 54.5238 73.8134 54.5238C74.3088 54.5238 74.7196 54.9346 74.7196 55.4301V57.9313C74.7196 58.4388 74.3088 58.8376 73.8134 58.8376Z" fill="#BAC2CC"/>
    <path d="M80 58.8375C79.5046 58.8375 79.0938 58.4266 79.0938 57.9312V52.9166C79.0938 52.4212 79.5046 52.0104 80 52.0104C80.4954 52.0104 80.9062 52.4212 80.9062 52.9166V57.9312C80.9062 58.4387 80.4954 58.8375 80 58.8375Z" fill="#BAC2CC"/>
    <path d="M86.1866 58.8375C85.6912 58.8375 85.2804 58.4267 85.2804 57.9312V50.4154C85.2804 49.92 85.6912 49.5092 86.1866 49.5092C86.6821 49.5092 87.0929 49.92 87.0929 50.4154V57.9312C87.0929 58.4387 86.6941 58.8375 86.1866 58.8375Z" fill="#BAC2CC"/>
    <path d="M73.8134 51.9258C73.4025 51.9258 73.04 51.6479 72.9313 51.2371C72.8104 50.7538 73.1004 50.2583 73.5959 50.1375C78.0425 49.0258 81.9575 46.5971 84.9421 43.1292L85.4979 42.4767C85.8242 42.1021 86.3921 42.0538 86.7788 42.38C87.1534 42.7063 87.2017 43.2742 86.8754 43.6608L86.3196 44.3133C83.0934 48.0833 78.84 50.7054 74.0309 51.9017C73.9584 51.9258 73.8859 51.9258 73.8134 51.9258Z" fill="#BAC2CC"/>
    <path d="M86.1867 47.5033C85.6912 47.5033 85.2804 47.0925 85.2804 46.5971V43.975H82.6462C82.1508 43.975 81.74 43.5641 81.74 43.0687C81.74 42.5733 82.1508 42.1625 82.6462 42.1625H86.1867C86.6821 42.1625 87.0929 42.5733 87.0929 43.0687V46.6091C87.0929 47.1046 86.6942 47.5033 86.1867 47.5033Z" fill="#BAC2CC"/>
    <path d="M83.625 63.4895H76.375C69.8137 63.4895 67.0104 60.6862 67.0104 54.125V46.875C67.0104 40.3137 69.8137 37.5104 76.375 37.5104H83.625C90.1862 37.5104 92.9895 40.3137 92.9895 46.875V54.125C92.9895 60.6862 90.1862 63.4895 83.625 63.4895ZM76.375 39.3229C70.8045 39.3229 68.8229 41.3045 68.8229 46.875V54.125C68.8229 59.6954 70.8045 61.677 76.375 61.677H83.625C89.1954 61.677 91.177 59.6954 91.177 54.125V46.875C91.177 41.3045 89.1954 39.3229 83.625 39.3229H76.375Z" fill="#BAC2CC"/>
    <path d="M62.844 113C61.4253 113 60.3567 112.743 59.638 112.23C58.9193 111.717 58.56 110.933 58.56 109.878C58.56 109.654 58.574 109.416 58.602 109.164C58.6393 108.903 58.6767 108.651 58.714 108.408C58.7607 108.165 58.8027 107.955 58.84 107.778C58.8773 107.601 58.9053 107.475 58.924 107.4L60.198 107.638C60.17 107.787 60.128 107.988 60.072 108.24C60.0253 108.492 59.9787 108.763 59.932 109.052C59.8853 109.341 59.862 109.617 59.862 109.878C59.862 110.345 59.96 110.723 60.156 111.012C60.3613 111.301 60.6833 111.511 61.122 111.642C61.5607 111.773 62.144 111.838 62.872 111.838H66.876V105.986H68.192V113H62.844ZM61.752 106.21V104.852H63.068V106.21H61.752ZM63.67 106.21V104.852H64.986V106.21H63.67ZM71.8563 113V111.838H73.5363V113H71.8563ZM70.5543 113V103.004H71.8563V113H70.5543ZM73.5363 113V111.838C73.6483 111.838 73.7229 111.889 73.7603 111.992C73.7976 112.095 73.8163 112.235 73.8163 112.412C73.8163 112.589 73.7976 112.734 73.7603 112.846C73.7229 112.949 73.6483 113 73.5363 113ZM76.3453 113V111.838H77.8433V113H76.3453ZM73.5312 113V111.838H75.7013L75.0293 112.37V105.986H76.3453V113H73.5312ZM73.5312 113C73.4099 113 73.3352 112.949 73.3072 112.846C73.2699 112.734 73.2512 112.589 73.2512 112.412C73.2512 112.235 73.2699 112.095 73.3072 111.992C73.3352 111.889 73.4099 111.838 73.5312 111.838V113ZM77.8433 113V111.838C77.9646 111.838 78.0393 111.889 78.0673 111.992C78.1046 112.095 78.1233 112.235 78.1233 112.412C78.1233 112.589 78.1046 112.734 78.0673 112.846C78.0393 112.949 77.9646 113 77.8433 113ZM75.0293 115.646V114.288H76.3453V115.646H75.0293ZM80.8059 113V111.838H82.3179V113H80.8059ZM79.5039 113V103.004H80.8059V113H79.5039ZM77.8379 113V111.838H79.5039V113H77.8379ZM77.8379 113C77.7166 113 77.6419 112.949 77.6139 112.846C77.5766 112.734 77.5579 112.589 77.5579 112.412C77.5579 112.235 77.5766 112.095 77.6139 111.992C77.6419 111.889 77.7166 111.838 77.8379 111.838V113ZM82.3179 113V111.838C82.4299 111.838 82.5046 111.889 82.5419 111.992C82.5792 112.095 82.5979 112.235 82.5979 112.412C82.5979 112.589 82.5792 112.734 82.5419 112.846C82.5046 112.949 82.4299 113 82.3179 113ZM91.5063 113V111.838H93.0183V113H91.5063ZM82.3223 113V111.838H91.7443L90.5683 112.874V109.668C90.5683 109.099 90.4889 108.632 90.3303 108.268C90.1809 107.895 89.9523 107.619 89.6443 107.442C89.3363 107.255 88.9536 107.162 88.4963 107.162C88.0949 107.162 87.7169 107.232 87.3623 107.372C87.0076 107.512 86.6809 107.699 86.3823 107.932C86.0836 108.156 85.8036 108.403 85.5423 108.674C85.2809 108.945 85.0429 109.215 84.8283 109.486C84.6229 109.757 84.4363 109.999 84.2683 110.214L83.8763 109.122C84.1936 108.721 84.5063 108.338 84.8143 107.974C85.1223 107.601 85.4536 107.265 85.8083 106.966C86.1723 106.667 86.5736 106.429 87.0123 106.252C87.4603 106.075 87.9736 105.986 88.5523 105.986C89.2056 105.986 89.7469 106.098 90.1763 106.322C90.6056 106.546 90.9416 106.84 91.1843 107.204C91.4363 107.568 91.6136 107.969 91.7163 108.408C91.8189 108.837 91.8703 109.257 91.8703 109.668V113H82.3223ZM83.2603 111.838V103.004H84.5623V111.838H83.2603ZM82.3223 113C82.2009 113 82.1263 112.949 82.0983 112.846C82.0609 112.734 82.0423 112.589 82.0423 112.412C82.0423 112.235 82.0609 112.095 82.0983 111.992C82.1263 111.889 82.2009 111.838 82.3223 111.838V113ZM93.0183 113V111.838C93.1303 111.838 93.2049 111.889 93.2423 111.992C93.2796 112.095 93.2983 112.235 93.2983 112.412C93.2983 112.589 93.2796 112.734 93.2423 112.846C93.2049 112.949 93.1303 113 93.0183 113ZM94.6797 113V103.004H95.9817V113H94.6797ZM93.0137 113V111.838H94.6797V113H93.0137ZM93.0137 113C92.8923 113 92.8177 112.949 92.7897 112.846C92.7523 112.734 92.7337 112.589 92.7337 112.412C92.7337 112.235 92.7523 112.095 92.7897 111.992C92.8177 111.889 92.8923 111.838 93.0137 111.838V113ZM98.3492 113V103.004H99.6512V113H98.3492Z" fill="#BAC2CC"/>
</svg>
