<svg width="159" height="142" viewBox="0 0 159 142" fill="none" xmlns="http://www.w3.org/2000/svg">
    <rect width="159" height="142" rx="16" fill="#252A30"/>
    <g opacity="0.2">
        <rect x="49.5" y="21" width="60" height="60" rx="30" fill="#E8F2FF"/>
    </g>
    <path d="M77.9523 57.6625H73.8465C73.4023 57.6625 73.034 57.2942 73.034 56.85V51.3034C73.034 50.1767 73.9548 49.2559 75.0815 49.2559H77.9523C78.3965 49.2559 78.7648 49.6242 78.7648 50.0684V56.8392C78.7648 57.2942 78.3965 57.6625 77.9523 57.6625ZM74.659 56.0375H77.1398V50.8917H75.0815C74.854 50.8917 74.659 51.0758 74.659 51.3142V56.0375Z" fill="#BAC2CC"/>
    <path d="M82.0476 57.6626H77.9418C77.4976 57.6626 77.1293 57.2942 77.1293 56.8501V46.385C77.1293 45.2584 78.0501 44.3375 79.1768 44.3375H80.8234C81.9501 44.3375 82.8709 45.2584 82.8709 46.385V56.8501C82.8601 57.2942 82.5026 57.6626 82.0476 57.6626ZM78.7651 56.0376H81.2459V46.385C81.2459 46.1575 81.0618 45.9625 80.8234 45.9625H79.1768C78.9493 45.9625 78.7543 46.1467 78.7543 46.385V56.0376H78.7651Z" fill="#BAC2CC"/>
    <path d="M86.1535 57.6625H82.0477C81.6035 57.6625 81.2352 57.2942 81.2352 56.85V51.9208C81.2352 51.4766 81.6035 51.1083 82.0477 51.1083H84.9185C86.0452 51.1083 86.966 52.0291 86.966 53.1558V56.85C86.966 57.2942 86.6085 57.6625 86.1535 57.6625ZM82.8602 56.0375H85.341V53.1558C85.341 52.9283 85.1568 52.7333 84.9185 52.7333H82.8602V56.0375Z" fill="#BAC2CC"/>
    <path d="M83.25 62.6458H76.75C70.8675 62.6458 68.3542 60.1325 68.3542 54.25V47.75C68.3542 41.8675 70.8675 39.3541 76.75 39.3541H83.25C89.1325 39.3541 91.6459 41.8675 91.6459 47.75V54.25C91.6459 60.1325 89.1325 62.6458 83.25 62.6458ZM76.75 40.9791C71.7559 40.9791 69.9792 42.7558 69.9792 47.75V54.25C69.9792 59.2441 71.7559 61.0208 76.75 61.0208H83.25C88.2442 61.0208 90.0209 59.2441 90.0209 54.25V47.75C90.0209 42.7558 88.2442 40.9791 83.25 40.9791H76.75Z" fill="#BAC2CC"/>
    <path d="M28.578 116.472C27.822 116.472 27.136 116.332 26.52 116.052C25.9133 115.781 25.4327 115.394 25.078 114.89C24.7327 114.395 24.56 113.831 24.56 113.196C24.56 113 24.574 112.743 24.602 112.426C24.6393 112.109 24.6813 111.754 24.728 111.362C24.784 110.97 24.84 110.573 24.896 110.172C24.9613 109.771 25.022 109.383 25.078 109.01L26.38 109.206C26.2773 109.85 26.184 110.443 26.1 110.984C26.0253 111.516 25.9647 111.973 25.918 112.356C25.8807 112.729 25.862 113.009 25.862 113.196C25.862 113.607 25.974 113.971 26.198 114.288C26.422 114.605 26.7393 114.853 27.15 115.03C27.5607 115.217 28.0367 115.31 28.578 115.31C29.1193 115.31 29.5767 115.221 29.95 115.044C30.3327 114.876 30.622 114.643 30.818 114.344C31.014 114.045 31.112 113.691 31.112 113.28V103.004H32.428V113.28C32.428 113.943 32.2553 114.512 31.91 114.988C31.5647 115.464 31.1027 115.828 30.524 116.08C29.9453 116.341 29.2967 116.472 28.578 116.472ZM36.7513 116.206C36.4153 116.206 36.0606 116.178 35.6873 116.122C35.3233 116.075 34.9219 116.005 34.4833 115.912L34.6793 114.862C35.1739 114.918 35.5846 114.96 35.9113 114.988C36.2379 115.016 36.5179 115.03 36.7513 115.03C37.4979 115.03 38.0393 114.89 38.3753 114.61C38.7206 114.33 38.8933 113.924 38.8933 113.392V106.812L39.4253 107.162H37.2273C36.7326 107.162 36.3453 107.223 36.0653 107.344C35.7853 107.456 35.5893 107.685 35.4773 108.03C35.3653 108.366 35.3093 108.861 35.3093 109.514C35.3093 110.158 35.3653 110.648 35.4773 110.984C35.5893 111.311 35.7806 111.535 36.0513 111.656C36.3313 111.777 36.7233 111.838 37.2273 111.838H38.8933V113H37.2273C36.4153 113 35.7759 112.879 35.3093 112.636C34.8426 112.384 34.5066 112.001 34.3013 111.488C34.1053 110.965 34.0073 110.307 34.0073 109.514C34.0073 108.711 34.1053 108.049 34.3013 107.526C34.5066 107.003 34.8426 106.616 35.3093 106.364C35.7759 106.112 36.4153 105.986 37.2273 105.986H40.1953V113.378C40.1953 113.975 40.0553 114.484 39.7753 114.904C39.4953 115.333 39.0986 115.655 38.5853 115.87C38.0719 116.094 37.4606 116.206 36.7513 116.206ZM42.5426 113V103.004H43.8446V113H42.5426ZM51.2121 113V111.838H52.7241V113H51.2121ZM45.7241 113V111.838H50.9041L49.9101 112.72V109.85C49.9101 109.169 49.8307 108.632 49.6721 108.24C49.5227 107.848 49.2754 107.573 48.9301 107.414C48.5847 107.246 48.1181 107.162 47.5301 107.162H46.3961V105.986H47.5301C48.3047 105.986 48.9674 106.112 49.5181 106.364C50.0687 106.607 50.4887 107.013 50.7781 107.582C51.0674 108.142 51.2121 108.898 51.2121 109.85V113H45.7241ZM52.7241 113V111.838C52.8361 111.838 52.9107 111.889 52.9481 111.992C52.9854 112.095 53.0041 112.235 53.0041 112.412C53.0041 112.589 52.9854 112.734 52.9481 112.846C52.9107 112.949 52.8361 113 52.7241 113ZM55.7346 113V111.838H57.3166V113H55.7346ZM57.3166 113V111.838C57.4379 111.838 57.5126 111.889 57.5406 111.992C57.5779 112.095 57.5966 112.235 57.5966 112.412C57.5966 112.589 57.5779 112.734 57.5406 112.846C57.5126 112.949 57.4379 113 57.3166 113ZM52.7246 113V111.838H55.1046L54.4326 112.37V105.986H55.7346V113H52.7246ZM52.7246 113C52.6033 113 52.5286 112.949 52.5006 112.846C52.4633 112.734 52.4446 112.589 52.4446 112.412C52.4446 112.235 52.4633 112.095 52.5006 111.992C52.5286 111.889 52.6033 111.838 52.7246 111.838V113ZM53.2846 104.852V103.494H54.6006V104.852H53.2846ZM55.2026 104.852V103.494H56.5186V104.852H55.2026ZM58.9844 113V103.004H60.2864V113H58.9844ZM57.3184 113V111.838H58.9844V113H57.3184ZM57.3184 113C57.197 113 57.1224 112.949 57.0944 112.846C57.057 112.734 57.0384 112.589 57.0384 112.412C57.0384 112.235 57.057 112.095 57.0944 111.992C57.1224 111.889 57.197 111.838 57.3184 111.838V113ZM62.6539 113V103.004H63.9559V113H62.6539ZM73.1819 113C71.7632 113 70.6946 112.743 69.9759 112.23C69.2572 111.717 68.8979 110.933 68.8979 109.878C68.8979 109.654 68.9119 109.416 68.9399 109.164C68.9772 108.903 69.0146 108.651 69.0519 108.408C69.0986 108.165 69.1406 107.955 69.1779 107.778C69.2152 107.601 69.2432 107.475 69.2619 107.4L70.5359 107.638C70.5079 107.787 70.4659 107.988 70.4099 108.24C70.3632 108.492 70.3166 108.763 70.2699 109.052C70.2232 109.341 70.1999 109.617 70.1999 109.878C70.1999 110.345 70.2979 110.723 70.4939 111.012C70.6992 111.301 71.0212 111.511 71.4599 111.642C71.8986 111.773 72.4819 111.838 73.2099 111.838H77.2139V105.986H78.5299V113H73.1819ZM72.0899 106.21V104.852H73.4059V106.21H72.0899ZM74.0079 106.21V104.852H75.3239V106.21H74.0079ZM82.1942 113V111.838H83.8742V113H82.1942ZM80.8922 113V103.004H82.1942V113H80.8922ZM83.8742 113V111.838C83.9862 111.838 84.0608 111.889 84.0982 111.992C84.1355 112.095 84.1542 112.235 84.1542 112.412C84.1542 112.589 84.1355 112.734 84.0982 112.846C84.0608 112.949 83.9862 113 83.8742 113ZM86.8791 113V111.838H88.4611V113H86.8791ZM88.4611 113V111.838C88.5825 111.838 88.6571 111.889 88.6851 111.992C88.7225 112.095 88.7411 112.235 88.7411 112.412C88.7411 112.589 88.7225 112.734 88.6851 112.846C88.6571 112.949 88.5825 113 88.4611 113ZM83.8691 113V111.838H86.2491L85.5771 112.37V105.986H86.8791V113H83.8691ZM83.8691 113C83.7478 113 83.6731 112.949 83.6451 112.846C83.6078 112.734 83.5891 112.589 83.5891 112.412C83.5891 112.235 83.6078 112.095 83.6451 111.992C83.6731 111.889 83.7478 111.838 83.8691 111.838V113ZM84.4291 115.632V114.274H85.7451V115.632H84.4291ZM86.3471 115.632V114.274H87.6631V115.632H86.3471ZM95.4769 113V111.838H96.9889V113H95.4769ZM88.4629 113V111.838H94.5949L94.1749 112.188V108.954C94.1749 108.366 93.9882 107.923 93.6149 107.624C93.2509 107.325 92.6816 107.176 91.9069 107.176C91.6736 107.176 91.3376 107.195 90.8989 107.232C90.4696 107.269 90.0122 107.325 89.5269 107.4L89.3869 106.336C89.7696 106.243 90.1849 106.163 90.6329 106.098C91.0809 106.023 91.5149 105.986 91.9349 105.986C92.6629 105.986 93.2882 106.103 93.8109 106.336C94.3429 106.569 94.7536 106.91 95.0429 107.358C95.3322 107.797 95.4769 108.329 95.4769 108.954V113H88.4629ZM88.4629 113C88.3416 113 88.2669 112.949 88.2389 112.846C88.2016 112.734 88.1829 112.589 88.1829 112.412C88.1829 112.235 88.2016 112.095 88.2389 111.992C88.2669 111.889 88.3416 111.838 88.4629 111.838V113ZM96.9889 113V111.838C97.1009 111.838 97.1756 111.889 97.2129 111.992C97.2502 112.095 97.2689 112.235 97.2689 112.412C97.2689 112.589 97.2502 112.734 97.2129 112.846C97.1756 112.949 97.1009 113 96.9889 113ZM91.3609 115.646V114.288H92.6769V115.646H91.3609ZM100.004 113V111.838H101.586V113H100.004ZM101.586 113V111.838C101.707 111.838 101.782 111.889 101.81 111.992C101.847 112.095 101.866 112.235 101.866 112.412C101.866 112.589 101.847 112.734 101.81 112.846C101.782 112.949 101.707 113 101.586 113ZM96.9941 113V111.838H99.3741L98.7021 112.37V105.986H100.004V113H96.9941ZM96.9941 113C96.8728 113 96.7981 112.949 96.7701 112.846C96.7328 112.734 96.7141 112.589 96.7141 112.412C96.7141 112.235 96.7328 112.095 96.7701 111.992C96.7981 111.889 96.8728 111.838 96.9941 111.838V113ZM97.5541 115.632V114.274H98.8701V115.632H97.5541ZM99.4721 115.632V114.274H100.788V115.632H99.4721ZM101.588 113V111.838H103.968L103.296 112.37V105.986H104.598V113H101.588ZM101.588 113C101.467 113 101.392 112.949 101.364 112.846C101.327 112.734 101.308 112.589 101.308 112.412C101.308 112.235 101.327 112.095 101.364 111.992C101.392 111.889 101.467 111.838 101.588 111.838V113ZM102.148 104.852V103.494H103.464V104.852H102.148ZM104.066 104.852V103.494H105.382V104.852H104.066ZM107.019 113V103.004H108.321V113H107.019ZM115.577 113V105.986H116.879V112.37L116.221 111.838H118.461V113H115.577ZM112.581 108.548V107.372H115.577V108.548H112.581ZM109.879 116.206C109.757 116.206 109.631 116.197 109.501 116.178C109.361 116.169 109.221 116.159 109.081 116.15L109.193 114.988C109.333 114.997 109.463 115.007 109.585 115.016C109.697 115.025 109.79 115.03 109.865 115.03C110.285 115.03 110.621 114.871 110.873 114.554C111.134 114.237 111.265 113.793 111.265 113.224V105.986H112.581V113.224C112.581 113.812 112.464 114.33 112.231 114.778C111.997 115.226 111.68 115.576 111.279 115.828C110.877 116.08 110.411 116.206 109.879 116.206ZM118.461 113V111.838C118.582 111.838 118.657 111.889 118.685 111.992C118.722 112.095 118.741 112.235 118.741 112.412C118.741 112.589 118.722 112.734 118.685 112.846C118.657 112.949 118.582 113 118.461 113ZM114.401 104.852V103.494H115.717V104.852H114.401ZM116.319 104.852V103.494H117.635V104.852H116.319ZM126.061 113C125.725 113 125.394 112.939 125.067 112.818C124.75 112.687 124.446 112.487 124.157 112.216L124.983 111.348C125.188 111.516 125.375 111.642 125.543 111.726C125.711 111.801 125.884 111.838 126.061 111.838H128.595L128.021 112.398V109.122C128.021 108.954 128.002 108.721 127.965 108.422C127.937 108.114 127.89 107.769 127.825 107.386C127.769 106.994 127.699 106.597 127.615 106.196L128.889 105.986C128.954 106.322 129.02 106.691 129.085 107.092C129.15 107.493 129.206 107.876 129.253 108.24C129.3 108.604 129.323 108.898 129.323 109.122V113H126.061ZM118.459 113V111.838H120.503L120.181 112.16V107.4H121.483V113H118.459ZM121.483 113V111.838H122.939C123.256 111.838 123.494 111.791 123.653 111.698C123.812 111.605 123.924 111.418 123.989 111.138C124.054 110.858 124.087 110.447 124.087 109.906V106.7H125.403V109.906C125.403 110.662 125.314 111.269 125.137 111.726C124.969 112.183 124.708 112.51 124.353 112.706C123.998 112.902 123.527 113 122.939 113H121.483ZM118.459 113C118.338 113 118.263 112.949 118.235 112.846C118.198 112.734 118.179 112.589 118.179 112.412C118.179 112.235 118.198 112.095 118.235 111.992C118.263 111.889 118.338 111.838 118.459 111.838V113ZM131.67 113V103.004H132.972V113H131.67Z" fill="#BAC2CC"/>
</svg>
