<svg width="52" height="26" viewBox="0 0 52 26" fill="none" xmlns="http://www.w3.org/2000/svg">
    <path d="M44.5835 18.6202L49.281 23.2909C49.9138 23.92 49.4682 25 48.576 25H2C1.44771 25 1 24.5523 1 24V3.49767C1 2.59527 2.10093 2.15449 2.72369 2.80755L3.79728 3.93336C3.98599 4.13126 4.24752 4.24324 4.52097 4.24324H5.68741C6.11987 4.24324 6.50333 4.52123 6.63783 4.93225L9.61852 14.0414C9.82202 14.6633 10.5581 14.9254 11.1089 14.5721L13.8061 12.8418C14.1632 12.6127 14.6259 12.6339 14.9606 12.8946L17.8513 15.1464C17.9562 15.2282 18.0438 15.33 18.1089 15.4461L19.3874 17.7252C19.723 18.3236 20.5478 18.4139 21.0051 17.9025L21.8117 17.0002C22.1442 16.6282 22.7001 16.5583 23.1144 16.8364L23.9609 17.4045C24.4833 17.7551 25.1959 17.5419 25.4399 16.9619L26.5155 14.4054L27.3903 12.8153C27.7201 12.2158 28.541 12.1172 29.0035 12.6215L30.0381 13.7499C30.3451 14.0847 30.8841 14.0458 31.1398 13.6704C31.4047 13.2816 31.9689 13.2565 32.2672 13.6204L34.013 15.7508C34.3026 16.1042 34.7948 16.2163 35.2089 16.0234L36.0058 15.6519C36.4709 15.4352 37.0246 15.6056 37.2873 16.0464L39.4128 19.6127C39.6927 20.0823 40.2979 20.2401 40.7715 19.9669L43.3788 18.4631C43.7698 18.2376 44.2634 18.302 44.5835 18.6202Z" fill="url(#paint0_linear_16_2261)" fill-opacity="0.5"/>
    <path d="M51 25L44.5835 18.6202C44.2634 18.302 43.7698 18.2376 43.3788 18.4631L40.7715 19.9669C40.2979 20.2401 39.6927 20.0823 39.4128 19.6127L37.2873 16.0463C37.0246 15.6056 36.4709 15.4352 36.0058 15.6519L35.2089 16.0234C34.7948 16.2163 34.3026 16.1042 34.013 15.7508L32.2672 13.6204C31.9689 13.2565 31.4047 13.2816 31.1398 13.6704V13.6704C30.8841 14.0458 30.3452 14.0847 30.0381 13.7499L29.0035 12.6215C28.541 12.1172 27.7201 12.2158 27.3903 12.8153L26.5155 14.4054L25.4399 16.9619C25.1959 17.5419 24.4833 17.7551 23.9609 17.4045L23.1144 16.8364C22.7001 16.5583 22.1442 16.6282 21.8117 17.0002L21.0051 17.9025C20.5478 18.4139 19.723 18.3236 19.3874 17.7252L18.1089 15.4461C18.0438 15.33 17.9563 15.2282 17.8513 15.1464L14.9606 12.8946C14.6259 12.6339 14.1632 12.6127 13.8061 12.8418L11.1089 14.5721C10.5581 14.9254 9.82202 14.6633 9.61852 14.0414L6.63783 4.93225C6.50334 4.52123 6.11988 4.24324 5.68742 4.24324H4.52098C4.24752 4.24324 3.986 4.13126 3.79728 3.93336L1 1" stroke="#E96D6D"/>
    <defs>
        <linearGradient id="paint0_linear_16_2261" x1="26" y1="-67.5714" x2="26" y2="25" gradientUnits="userSpaceOnUse">
            <stop stop-color="#E44848"/>
            <stop offset="1" stop-color="#E44848" stop-opacity="0"/>
        </linearGradient>
    </defs>
</svg>
