<svg width="52" height="26" viewBox="0 0 52 26" fill="none" xmlns="http://www.w3.org/2000/svg">
    <path d="M7.41649 18.6202L2.71898 23.2909C2.08622 23.92 2.53176 25 3.42405 25H50C50.5523 25 51 24.5523 51 24V3.49767C51 2.59527 49.8991 2.15449 49.2763 2.80755L48.2027 3.93336C48.014 4.13126 47.7525 4.24324 47.479 4.24324H46.3126C45.8801 4.24324 45.4967 4.52123 45.3622 4.93225L42.3815 14.0414C42.178 14.6633 41.4419 14.9254 40.8911 14.5721L38.1939 12.8418C37.8368 12.6127 37.3741 12.6339 37.0394 12.8946L34.1487 15.1464C34.0438 15.2282 33.9562 15.33 33.8911 15.4461L32.6126 17.7252C32.277 18.3236 31.4522 18.4139 30.9949 17.9025L30.1883 17.0002C29.8558 16.6282 29.2999 16.5583 28.8856 16.8364L28.0391 17.4045C27.5167 17.7551 26.8041 17.5419 26.5601 16.9619L25.4845 14.4054L24.6097 12.8153C24.2799 12.2158 23.459 12.1172 22.9965 12.6215L21.9619 13.7499C21.6549 14.0847 21.1159 14.0458 20.8602 13.6704C20.5953 13.2816 20.0311 13.2565 19.7328 13.6204L17.987 15.7508C17.6974 16.1042 17.2052 16.2163 16.7911 16.0234L15.9942 15.6519C15.5291 15.4352 14.9754 15.6056 14.7127 16.0464L12.5872 19.6127C12.3073 20.0823 11.7021 20.2401 11.2285 19.9669L8.62118 18.4631C8.23018 18.2376 7.73658 18.302 7.41649 18.6202Z" fill="url(#paint0_linear_16_2293)" fill-opacity="0.5"/>
    <path d="M1 25L7.41649 18.6202C7.73657 18.302 8.23018 18.2376 8.62118 18.4631L11.2285 19.9669C11.7021 20.2401 12.3073 20.0823 12.5872 19.6127L14.7127 16.0463C14.9754 15.6056 15.5291 15.4352 15.9942 15.6519L16.7911 16.0234C17.2052 16.2163 17.6974 16.1042 17.987 15.7508L19.7328 13.6204C20.0311 13.2565 20.5953 13.2816 20.8602 13.6704V13.6704C21.1159 14.0458 21.6548 14.0847 21.9619 13.7499L22.9965 12.6215C23.459 12.1172 24.2799 12.2158 24.6097 12.8153L25.4845 14.4054L26.5601 16.9619C26.8041 17.5419 27.5167 17.7551 28.0391 17.4045L28.8856 16.8364C29.2999 16.5583 29.8558 16.6282 30.1883 17.0002L30.9949 17.9025C31.4522 18.4139 32.277 18.3236 32.6126 17.7252L33.8911 15.4461C33.9562 15.33 34.0437 15.2282 34.1487 15.1464L37.0394 12.8946C37.3741 12.6339 37.8368 12.6127 38.1939 12.8418L40.8911 14.5721C41.4419 14.9254 42.178 14.6633 42.3815 14.0414L45.3622 4.93225C45.4967 4.52123 45.8801 4.24324 46.3126 4.24324H47.479C47.7525 4.24324 48.014 4.13126 48.2027 3.93336L51 1" stroke="#61B9AD"/>
    <defs>
        <linearGradient id="paint0_linear_16_2293" x1="26" y1="-67.5714" x2="26" y2="25" gradientUnits="userSpaceOnUse">
            <stop stop-color="#00A478"/>
            <stop offset="1" stop-color="#00A478" stop-opacity="0"/>
        </linearGradient>
    </defs>
</svg>
