<svg width="37" height="37" viewBox="0 0 37 37" fill="none" xmlns="http://www.w3.org/2000/svg">
    <g clip-path="url(#clip0_1_4479)">
        <rect x="0.0098877" y="18.9995" width="26" height="26" rx="13" transform="rotate(-46.9179 0.0098877 18.9995)" fill="#88CAC1" fill-opacity="0.2"/>
        <path d="M21.4883 18.0871C21.1795 18.4173 20.6496 18.435 20.3195 18.1262L17.7023 15.6786L15.2547 18.2958C14.9459 18.626 14.4161 18.6437 14.0859 18.335C13.7557 18.0262 13.738 17.4963 14.0468 17.1662L17.0592 13.945C17.368 13.6149 17.8978 13.5971 18.228 13.9059L21.4491 16.9183C21.7793 17.2271 21.797 17.7569 21.4883 18.0871Z" fill="#39A798"/>
        <path d="M18.528 22.8667C18.3849 23.0197 18.1854 23.1199 17.9517 23.1278C17.4997 23.1429 17.1132 22.7814 17.0981 22.3295L16.8371 14.5375C16.822 14.0856 17.1835 13.6991 17.6354 13.6839C18.0874 13.6688 18.4739 14.0303 18.489 14.4822L18.75 22.2742C18.7578 22.5079 18.6711 22.7136 18.528 22.8667Z" fill="#39A798"/>
    </g>
    <defs>
        <clipPath id="clip0_1_4479">
            <rect x="0.0098877" y="18.9995" width="26" height="26" rx="13" transform="rotate(-46.9179 0.0098877 18.9995)" fill="white"/>
        </clipPath>
    </defs>
</svg>
