<svg width="24" height="10" viewBox="0 0 24 10" fill="none" xmlns="http://www.w3.org/2000/svg">
    <path d="M3.416 9.98399C2.69733 9.98399 2.08133 9.88133 1.568 9.67599C1.064 9.47066 0.676667 9.13932 0.406 8.68199C0.135333 8.22466 0 7.61799 0 6.86199V0.18399H1.232V6.90399C1.232 7.61332 1.42333 8.12666 1.806 8.44399C2.18867 8.75199 2.72533 8.90599 3.416 8.90599C4.144 8.90599 4.69933 8.75199 5.082 8.44399C5.474 8.12666 5.67 7.61332 5.67 6.90399V0.18399H6.902V6.86199C6.902 7.60866 6.76667 8.21532 6.496 8.68199C6.22533 9.13932 5.82867 9.47066 5.306 9.67599C4.79267 9.88133 4.16267 9.98399 3.416 9.98399Z" fill="white"/>
    <path d="M11.8094 9.96999C11.5108 9.96999 11.1701 9.95132 10.7874 9.91399C10.4141 9.88599 10.0408 9.84866 9.66744 9.80199C9.2941 9.74599 8.96744 9.69933 8.68744 9.66199L8.79944 8.65399C9.07944 8.68199 9.39677 8.71466 9.75144 8.75199C10.1154 8.78932 10.4748 8.82199 10.8294 8.84999C11.1841 8.87799 11.4874 8.89199 11.7394 8.89199C12.3928 8.89199 12.8828 8.74732 13.2094 8.45799C13.5361 8.15932 13.6994 7.69732 13.6994 7.07199C13.6994 6.73599 13.6341 6.46532 13.5034 6.25999C13.3728 6.05466 13.1534 5.89599 12.8454 5.78399C12.5468 5.66266 12.1408 5.55066 11.6274 5.44799C10.9461 5.30799 10.3814 5.13999 9.93344 4.94399C9.48544 4.74799 9.14944 4.47266 8.92544 4.11799C8.71077 3.76332 8.60344 3.28266 8.60344 2.67599C8.60344 2.03199 8.7341 1.51866 8.99544 1.13599C9.25677 0.743991 9.62544 0.459324 10.1014 0.281991C10.5774 0.104658 11.1328 0.0159912 11.7674 0.0159912C12.0474 0.0159912 12.3694 0.0346576 12.7334 0.071991C13.0974 0.0999906 13.4568 0.137324 13.8114 0.18399C14.1661 0.221324 14.4694 0.263324 14.7214 0.309991L14.6374 1.33199C14.3574 1.29466 14.0401 1.26199 13.6854 1.23399C13.3308 1.19666 12.9854 1.16399 12.6494 1.13599C12.3228 1.10799 12.0568 1.09399 11.8514 1.09399C11.1888 1.09399 10.6894 1.21532 10.3534 1.45799C10.0174 1.70066 9.84944 2.07399 9.84944 2.57799C9.84944 2.97932 9.9241 3.28266 10.0734 3.48799C10.2228 3.69332 10.4654 3.85666 10.8014 3.97799C11.1374 4.08999 11.5761 4.20666 12.1174 4.32799C12.6121 4.44932 13.0368 4.57532 13.3914 4.70599C13.7461 4.83666 14.0401 4.99999 14.2734 5.19599C14.5068 5.38266 14.6748 5.62066 14.7774 5.90999C14.8894 6.19932 14.9454 6.55399 14.9454 6.97399C14.9454 7.69266 14.8148 8.27132 14.5534 8.70999C14.3014 9.14866 13.9421 9.47066 13.4754 9.67599C13.0088 9.87199 12.4534 9.96999 11.8094 9.96999Z" fill="white"/>
    <path d="M16.7087 9.84399V0.18399H20.1947C20.9133 0.18399 21.506 0.300657 21.9727 0.533991C22.4487 0.757991 22.822 1.07532 23.0927 1.48599C23.3727 1.89666 23.5687 2.39132 23.6807 2.96999C23.802 3.53932 23.8627 4.17399 23.8627 4.87399C23.8627 5.57399 23.8067 6.22732 23.6947 6.83399C23.5827 7.43132 23.3867 7.95866 23.1067 8.41599C22.836 8.86399 22.4627 9.21399 21.9867 9.46599C21.52 9.71799 20.9273 9.84399 20.2087 9.84399H16.7087ZM17.9407 8.76599H20.1947C20.6893 8.76599 21.0907 8.66332 21.3987 8.45799C21.7067 8.24332 21.9447 7.95399 22.1127 7.58999C22.29 7.22599 22.4113 6.81532 22.4767 6.35799C22.5513 5.89132 22.5887 5.39666 22.5887 4.87399C22.5887 4.36066 22.5513 3.88466 22.4767 3.44599C22.4113 3.00732 22.29 2.62466 22.1127 2.29799C21.9447 1.97132 21.702 1.71932 21.3847 1.54199C21.0767 1.35532 20.68 1.26199 20.1947 1.26199H17.9407V8.76599Z" fill="white"/>
</svg>
