<svg width="159" height="142" viewBox="0 0 159 142" fill="none" xmlns="http://www.w3.org/2000/svg">
    <rect width="159" height="142" rx="16" fill="#252A30"/>
    <g opacity="0.2">
        <rect x="49.5" y="21" width="60" height="60" rx="30" fill="#E8F2FF"/>
    </g>
    <g opacity="0.8">
        <path d="M87.0028 64.6151H72.9972C69.9594 64.6151 67.495 62.1507 67.495 59.1129V50.9024C67.495 47.8646 69.9594 45.4001 72.9972 45.4001H87.0028C90.0406 45.4001 92.505 47.8646 92.505 50.9024V52.6592C92.505 53.1594 92.0902 53.5742 91.59 53.5742H89.1256C88.6986 53.5742 88.3082 53.7328 88.0276 54.0256L88.0154 54.0378C87.6738 54.3672 87.5152 54.8185 87.5518 55.2821C87.625 56.0873 88.3936 56.7339 89.272 56.7339H91.59C92.0902 56.7339 92.505 57.1487 92.505 57.6489V59.1007C92.505 62.1507 90.0406 64.6151 87.0028 64.6151ZM72.9972 47.2301C70.972 47.2301 69.325 48.8772 69.325 50.9024V59.1129C69.325 61.1381 70.972 62.7851 72.9972 62.7851H87.0028C89.028 62.7851 90.675 61.1381 90.675 59.1129V58.5761H89.272C87.4298 58.5761 85.8682 57.2097 85.7218 55.4529C85.6242 54.4525 85.9902 53.4644 86.7222 52.7446C87.3566 52.098 88.2106 51.7442 89.1256 51.7442H90.675V50.9024C90.675 48.8772 89.028 47.2301 87.0028 47.2301H72.9972Z" fill="#BAC2CC"/>
        <path d="M68.41 52.9153C67.9098 52.9153 67.495 52.5005 67.495 52.0003V46.4249C67.495 44.6071 68.6418 42.9601 70.3376 42.3135L80.0244 38.6535C81.0248 38.2753 82.135 38.4095 83.0012 39.0195C83.8796 39.6295 84.392 40.6177 84.392 41.6791V46.3151C84.392 46.8153 83.9772 47.2301 83.477 47.2301C82.9768 47.2301 82.562 46.8153 82.562 46.3151V41.6791C82.562 41.2155 82.3424 40.7885 81.952 40.5201C81.5616 40.2517 81.098 40.1907 80.6588 40.3615L70.972 44.0215C69.9838 44.3997 69.3128 45.3635 69.3128 46.4249V52.0003C69.325 52.5127 68.9102 52.9153 68.41 52.9153Z" fill="#BAC2CC"/>
        <path d="M89.272 58.576C87.4298 58.576 85.8682 57.2096 85.7218 55.4528C85.6242 54.4402 85.9902 53.452 86.7222 52.7322C87.3444 52.0978 88.1984 51.744 89.1134 51.744H91.651C92.8588 51.7806 93.786 52.7322 93.786 53.9034V56.4166C93.786 57.5878 92.8588 58.5394 91.6876 58.576H89.272ZM91.6266 53.574H89.1256C88.6986 53.574 88.3082 53.7326 88.0276 54.0254C87.6738 54.367 87.503 54.8306 87.5518 55.2942C87.625 56.0994 88.3936 56.746 89.272 56.746H91.6632C91.8218 56.746 91.9682 56.5996 91.9682 56.4166V53.9034C91.9682 53.7204 91.8218 53.5862 91.6266 53.574Z" fill="#BAC2CC"/>
        <path d="M82.44 52.4151H73.9C73.3998 52.4151 72.985 52.0003 72.985 51.5001C72.985 50.9999 73.3998 50.5851 73.9 50.5851H82.44C82.9402 50.5851 83.355 50.9999 83.355 51.5001C83.355 52.0003 82.9402 52.4151 82.44 52.4151Z" fill="#BAC2CC"/>
    </g>
    <path d="M55.78 113C54.968 113 54.3287 112.879 53.862 112.636C53.3953 112.384 53.0593 112.001 52.854 111.488C52.658 110.965 52.56 110.307 52.56 109.514C52.56 108.711 52.658 108.049 52.854 107.526C53.0593 107.003 53.3953 106.616 53.862 106.364C54.3287 106.112 54.968 105.986 55.78 105.986H58.748V112.356H57.446V106.7L57.978 107.162H55.78C55.2853 107.162 54.898 107.223 54.618 107.344C54.338 107.456 54.142 107.685 54.03 108.03C53.918 108.366 53.862 108.861 53.862 109.514C53.862 110.158 53.918 110.648 54.03 110.984C54.142 111.311 54.3333 111.535 54.604 111.656C54.884 111.777 55.276 111.838 55.78 111.838H60.246V113H55.78ZM60.246 113V111.838C60.3673 111.838 60.442 111.889 60.47 111.992C60.5073 112.095 60.526 112.235 60.526 112.412C60.526 112.589 60.5073 112.734 60.47 112.846C60.442 112.949 60.3673 113 60.246 113ZM54.324 104.852V103.494H55.64V104.852H54.324ZM56.242 104.852V103.494H57.558V104.852H56.242ZM69.4281 113V111.838H70.9401V113H69.4281ZM60.2441 113V111.838H69.6661L68.4901 112.874V109.668C68.4901 109.099 68.4108 108.632 68.2521 108.268C68.1028 107.895 67.8741 107.619 67.5661 107.442C67.2581 107.255 66.8755 107.162 66.4181 107.162C66.0168 107.162 65.6388 107.232 65.2841 107.372C64.9295 107.512 64.6028 107.699 64.3041 107.932C64.0055 108.156 63.7255 108.403 63.4641 108.674C63.2028 108.945 62.9648 109.215 62.7501 109.486C62.5448 109.757 62.3581 109.999 62.1901 110.214L61.7981 109.122C62.1155 108.721 62.4281 108.338 62.7361 107.974C63.0441 107.601 63.3755 107.265 63.7301 106.966C64.0941 106.667 64.4955 106.429 64.9341 106.252C65.3821 106.075 65.8955 105.986 66.4741 105.986C67.1275 105.986 67.6688 106.098 68.0981 106.322C68.5275 106.546 68.8635 106.84 69.1061 107.204C69.3581 107.568 69.5355 107.969 69.6381 108.408C69.7408 108.837 69.7921 109.257 69.7921 109.668V113H60.2441ZM61.1821 111.838V103.004H62.4841V111.838H61.1821ZM60.2441 113C60.1228 113 60.0481 112.949 60.0201 112.846C59.9828 112.734 59.9641 112.589 59.9641 112.412C59.9641 112.235 59.9828 112.095 60.0201 111.992C60.0481 111.889 60.1228 111.838 60.2441 111.838V113ZM70.9401 113V111.838C71.0521 111.838 71.1268 111.889 71.1641 111.992C71.2015 112.095 71.2201 112.235 71.2201 112.412C71.2201 112.589 71.2015 112.734 71.1641 112.846C71.1268 112.949 71.0521 113 70.9401 113ZM65.0601 104.726V103.368H66.3761V104.726H65.0601ZM78.4815 113V111.838H79.9795V113H78.4815ZM70.9355 113V111.838H77.8515L77.1795 112.426V106.7L77.7255 107.162H75.5135C75.0095 107.162 74.6175 107.223 74.3375 107.344C74.0575 107.465 73.8615 107.694 73.7495 108.03C73.6469 108.366 73.5955 108.856 73.5955 109.5C73.5955 110.144 73.6469 110.634 73.7495 110.97C73.8615 111.306 74.0575 111.535 74.3375 111.656C74.6175 111.777 75.0095 111.838 75.5135 111.838V112.748C74.7015 112.748 74.0622 112.645 73.5955 112.44C73.1289 112.235 72.7929 111.894 72.5875 111.418C72.3915 110.942 72.2935 110.303 72.2935 109.5C72.2935 108.707 72.3915 108.053 72.5875 107.54C72.7929 107.017 73.1289 106.63 73.5955 106.378C74.0622 106.117 74.7015 105.986 75.5135 105.986H78.4815V113H70.9355ZM70.9355 113C70.8142 113 70.7395 112.949 70.7115 112.846C70.6742 112.734 70.6555 112.589 70.6555 112.412C70.6555 112.235 70.6742 112.095 70.7115 111.992C70.7395 111.889 70.8142 111.838 70.9355 111.838V113ZM79.9795 113V111.838C80.1009 111.838 80.1755 111.889 80.2035 111.992C80.2409 112.095 80.2595 112.235 80.2595 112.412C80.2595 112.589 80.2409 112.734 80.2035 112.846C80.1755 112.949 80.1009 113 79.9795 113ZM75.0655 104.726V103.368H76.3815V104.726H75.0655ZM87.0003 113V111.838H88.5123V113H87.0003ZM79.9863 113V111.838H86.1183L85.6983 112.188V108.954C85.6983 108.366 85.5117 107.923 85.1383 107.624C84.7743 107.325 84.205 107.176 83.4303 107.176C83.197 107.176 82.861 107.195 82.4223 107.232C81.993 107.269 81.5357 107.325 81.0503 107.4L80.9103 106.336C81.293 106.243 81.7083 106.163 82.1563 106.098C82.6043 106.023 83.0383 105.986 83.4583 105.986C84.1863 105.986 84.8117 106.103 85.3343 106.336C85.8663 106.569 86.277 106.91 86.5663 107.358C86.8557 107.797 87.0003 108.329 87.0003 108.954V113H79.9863ZM79.9863 113C79.865 113 79.7903 112.949 79.7623 112.846C79.725 112.734 79.7063 112.589 79.7063 112.412C79.7063 112.235 79.725 112.095 79.7623 111.992C79.7903 111.889 79.865 111.838 79.9863 111.838V113ZM88.5123 113V111.838C88.6243 111.838 88.699 111.889 88.7363 111.992C88.7737 112.095 88.7923 112.235 88.7923 112.412C88.7923 112.589 88.7737 112.734 88.7363 112.846C88.699 112.949 88.6243 113 88.5123 113ZM96.5536 113V111.838H98.0516V113H96.5536ZM88.5176 113V111.838H96.0636L95.2376 112.454V109.556C95.2376 108.94 95.1676 108.459 95.0276 108.114C94.8969 107.769 94.6636 107.521 94.3276 107.372C93.9916 107.223 93.5342 107.148 92.9556 107.148C92.5636 107.148 92.1762 107.176 91.7936 107.232C91.4109 107.288 91.1122 107.363 90.8976 107.456L91.6956 106.672C91.6396 106.887 91.5836 107.162 91.5276 107.498C91.4716 107.834 91.4249 108.198 91.3876 108.59C91.3502 108.973 91.3316 109.355 91.3316 109.738C91.3316 110.121 91.3502 110.499 91.3876 110.872C91.4249 111.245 91.4669 111.572 91.5136 111.852C91.5602 112.132 91.5976 112.323 91.6256 112.426L90.3796 112.776C90.3422 112.655 90.2956 112.445 90.2396 112.146C90.1929 111.847 90.1462 111.488 90.0996 111.068C90.0622 110.648 90.0436 110.205 90.0436 109.738C90.0436 109.281 90.0622 108.837 90.0996 108.408C90.1462 107.969 90.1976 107.573 90.2536 107.218C90.3189 106.863 90.3796 106.579 90.4356 106.364C90.6502 106.28 90.9816 106.196 91.4296 106.112C91.8869 106.028 92.3956 105.986 92.9556 105.986C93.7489 105.986 94.4116 106.103 94.9436 106.336C95.4849 106.569 95.8862 106.947 96.1476 107.47C96.4182 107.983 96.5536 108.679 96.5536 109.556V113H88.5176ZM88.5176 113C88.3962 113 88.3216 112.949 88.2936 112.846C88.2562 112.734 88.2376 112.589 88.2376 112.412C88.2376 112.235 88.2562 112.095 88.2936 111.992C88.3216 111.889 88.3962 111.838 88.5176 111.838V113ZM98.0516 113V111.838C98.1729 111.838 98.2476 111.889 98.2756 111.992C98.3129 112.095 98.3316 112.235 98.3316 112.412C98.3316 112.589 98.3129 112.734 98.2756 112.846C98.2476 112.949 98.1729 113 98.0516 113ZM99.7129 113V103.004H101.015V113H99.7129ZM98.0469 113V111.838H99.7129V113H98.0469ZM98.0469 113C97.9255 113 97.8509 112.949 97.8229 112.846C97.7855 112.734 97.7669 112.589 97.7669 112.412C97.7669 112.235 97.7855 112.095 97.8229 111.992C97.8509 111.889 97.9255 111.838 98.0469 111.838V113ZM103.382 113V103.004H104.684V113H103.382Z" fill="#BAC2CC"/>
</svg>
